PathFileType	4	(X/Y/Z)	C:/Users/opensim2020/Desktop/walking_exp_matlab/subject01_walking06_straight_01.trc																																																																																																																															
DataRate	CameraRate	NumFrames	NumMarkers	Units	OrigDataRate	OrigDataStartFrame	OrigNumFrames																																																																																																																											
100	100	9	43	mm	100	954	251																																																																																																																											
Frame#	Time	LFHD			RFHD			LBHD			RBHD			C7			T10			CLAV			STRN			RBAK			LSHO			LUPA			LELB			LFRM			LWRA			LWRB			LFIN			RSHO			RUPA			RELB			RFRM			RWRA			RWRB			RFIN			LASI			RASI			LPSI			RPSI			LTHI			LKNE			LTIB			LANK			LHEE			LTOE			RTHI			RKNE			RTIB			RANK			RHEE			RTOE			*39			*40			*41			*42		
		X1	Y1	Z1	X2	Y2	Z2	X3	Y3	Z3	X4	Y4	Z4	X5	Y5	Z5	X6	Y6	Z6	X7	Y7	Z7	X8	Y8	Z8	X9	Y9	Z9	X10	Y10	Z10	X11	Y11	Z11	X12	Y12	Z12	X13	Y13	Z13	X14	Y14	Z14	X15	Y15	Z15	X16	Y16	Z16	X17	Y17	Z17	X18	Y18	Z18	X19	Y19	Z19	X20	Y20	Z20	X21	Y21	Z21	X22	Y22	Z22	X23	Y23	Z23	X24	Y24	Z24	X25	Y25	Z25	X26	Y26	Z26	X27	Y27	Z27	X28	Y28	Z28	X29	Y29	Z29	X30	Y30	Z30	X31	Y31	Z31	X32	Y32	Z32	X33	Y33	Z33	X34	Y34	Z34	X35	Y35	Z35	X36	Y36	Z36	X37	Y37	Z37	X38	Y38	Z38	X39	Y39	Z39	X40	Y40	Z40	X41	Y41	Z41	X42	Y42	Z42	X43	Y43	Z43
																																																																																																																																		
189	1.88	266.29562	1670.67908	1453.2052	295.84912	1682.16357	1562.96619	171.99666	1591.74207	1479.505	201.02591	1602.1886	1595.85571	172.81308	1426.79688	1508.27307	136.92511	1134.67224	1505.25586	317.29059	1360.45422	1503.73975	359.46997	1203.95496	1497.67468	119.59584	1233.39063	1584.72009	255.09409	1392.30212	1344.73975	205.27081	1211.21704	1260.61157	172.06299	1065.83435	1263.70862	187.33559	953.1181	1239.36804	236.49962	821.59735	1263.10339	184.09523	830.6051	1233.61292	210.53424	747.12402	1234.8667	257.35226	1385.453	1656.06873	230.78667	1183.92212	1762.83057	256.43372	1059.50281	1770.71436	330.08313	960.00488	1794.43396	448.48972	888.21082	1765.55371	411.36362	869.2113	1805.9541	478.6745	818.63013	1802.56946	319.32138	931.51624	1400.43652	303.04568	926.33667	1617.88074	129.94994	939.29822	1434.67017	118.69225	945.93475	1578.50305	363.52264	612.05908	1326.00159	395.83475	484.37363	1347.57715	405.1926	301.25955	1333.65356	464.48215	84.90344	1379.65735	434.4595	43.12757	1436.40869	611.35077	89.11911	1369.86951	191.08531	601.02954	1654.49622	169.57451	442.92786	1624.84778	82.51862	288.48767	1622.71899	20.88293	91.54588	1564.43665	-31.71769	64.38354	1512.04211	154.43604	34.41506	1563.78687	269.77756	1709.76123	1544.27209	1973.02307	1023.82355	-3102.0769	2012.61572	1022.03577	-3140.66187	NaN	NaN	NaN
190	1.89	275.78928	1669.80042	1452.07654	305.45123	1681.3208	1561.8114	181.47189	1590.95557	1478.56702	210.62274	1601.41138	1594.81091	182.41862	1425.89221	1507.24524	145.96051	1134.03613	1504.21851	326.92377	1359.58911	1502.80212	369.28946	1203.18347	1496.96899	129.32916	1232.38855	1583.57642	264.80563	1391.25146	1343.76624	214.91994	1210.13196	1259.61597	181.4324	1064.9093	1262.80469	196.2529	952.08942	1238.68188	244.88751	820.35815	1262.47119	192.48807	829.56476	1232.97217	218.59422	745.78827	1234.60535	266.81522	1384.65027	1655.11426	240.50908	1183.40625	1762.06909	266.15884	1058.8595	1770.1344	340.55328	959.84131	1793.7406	459.43475	889.01709	1764.60791	422.64691	869.7561	1805.1228	490.4191	819.85767	1801.69702	329.63675	930.2149	1400.14722	312.85379	925.52344	1617.47729	140.09009	938.55005	1433.23865	128.34715	945.31531	1576.99731	371.65561	610.63593	1325.6709	404.26181	483.26721	1347.73096	417.23087	300.14871	1334.79272	479.7869	84.57027	1382.16553	451.42712	42.76026	1438.97083	627.19012	91.88794	1372.10266	198.52135	600.76245	1654.46399	175.82127	442.54007	1624.87756	86.49255	289.45734	1622.74268	21.8901	93.36492	1564.7832	-31.05868	66.98066	1512.44995	154.61682	34.43991	1563.92151	279.37195	1708.9165	1543.1532	1973.13098	1023.63367	-3101.99438	2012.64893	1022.09766	-3140.54834	NaN	NaN	NaN
191	1.9	285.2254	1668.90381	1450.86121	315.02429	1680.48877	1560.5957	191.0284	1590.08374	1477.49475	220.2287	1600.63928	1593.71899	191.96831	1424.97717	1506.13074	156.22449	1132.78943	1502.96912	336.62198	1358.77502	1501.81165	379.15125	1202.4292	1496.12805	139.0294	1231.41174	1582.28943	274.57104	1390.21606	1342.67627	224.73578	1208.97375	1258.58984	190.96852	1063.94861	1261.92212	205.43277	951.01422	1237.84094	253.729	819.14941	1261.77466	201.39655	828.48737	1232.20483	227.01508	744.38525	1234.24548	276.39264	1383.92029	1654.11597	250.04846	1182.76514	1761.08936	275.80469	1058.2262	1769.47595	350.74127	959.59821	1792.95337	470.08838	889.617	1763.60364	433.41473	869.98096	1804.09985	501.53397	820.62262	1800.58801	339.93423	929.00171	1399.81567	322.69025	924.6012	1617.04846	150.32771	937.82318	1431.89417	138.29765	944.64996	1575.62537	380.9339	609.66833	1325.62952	413.34329	482.26498	1348.09583	428.01633	298.77621	1336.17908	493.43665	84.75568	1384.57788	465.34674	42.63086	1441.69812	640.75293	93.12255	1374.60388	206.53116	600.58099	1654.33398	182.55264	442.38342	1625.01245	90.70234	290.51053	1622.84778	23.10981	95.38704	1565.35596	-30.31912	69.76538	1512.97681	154.76938	34.41131	1564.02002	288.94308	1708.06848	1541.9021	1973.06274	1023.88641	-3102.09839	2012.53796	1022.05225	-3140.67554	NaN	NaN	NaN
192	1.91	294.71149	1668.10596	1449.59521	324.65121	1679.72607	1559.29651	200.58171	1589.27148	1476.32361	229.92516	1599.86536	1592.53357	201.6687	1424.10059	1505.01575	166.20816	1131.83423	1501.81763	346.4259	1358.05444	1500.729	389.12341	1201.7356	1495.15784	148.93279	1230.37305	1581.02356	284.3779	1389.1897	1341.50562	234.56477	1207.85596	1257.43225	200.62299	1062.80933	1260.97156	215.04158	949.93262	1236.89868	262.96613	817.96924	1260.93994	210.69191	827.3548	1231.32825	236.05006	743.11877	1233.67505	286.01913	1383.2019	1653.02344	259.57623	1182.11987	1760.00525	285.2977	1057.61084	1768.7052	360.74094	959.35748	1792.07043	480.32309	889.9707	1762.53894	443.85742	870.17133	1803.11169	512.35516	821.25275	1799.56494	350.31442	927.92108	1399.33118	332.12659	923.38733	1616.71924	160.65875	937.13733	1430.64746	148.28398	944.10852	1574.33765	391.40112	609.0224	1325.8136	423.11551	481.29272	1348.70886	438.23795	297.47736	1337.90234	504.5538	83.72314	1387.28601	477.01611	41.92717	1444.61157	652.19739	92.9116	1377.31604	214.70494	600.2157	1653.94836	189.57904	442.09113	1625.20142	95.27036	291.74054	1623.07825	24.27151	97.62403	1565.90686	-29.50126	72.91743	1513.59387	154.92264	34.3377	1564.2229	298.59354	1707.29883	1540.63843	1973.07446	1023.36786	-3101.854	2012.68945	1022.10779	-3140.62476	NaN	NaN	NaN
193	1.92	304.18259	1667.27795	1448.2373	334.31485	1678.99854	1557.88977	210.08006	1588.46643	1475.13708	239.57834	1599.16272	1591.22375	211.34947	1423.22327	1503.72925	176.31673	1130.99182	1500.72498	356.27524	1357.33948	1499.57214	399.21011	1201.11755	1494.1394	158.8485	1229.40308	1579.69507	294.08768	1388.21423	1340.26868	244.65326	1206.72705	1256.32007	210.52145	1061.72034	1259.94275	224.92384	948.82983	1235.87524	272.74878	816.88531	1259.99426	220.46326	826.23053	1230.35986	245.58958	741.81586	1233.03235	295.71463	1382.55066	1651.85034	269.009	1181.5116	1758.81372	294.71164	1057.04614	1767.81238	370.55545	959.06531	1791.15601	490.31299	890.08691	1761.38928	454.12939	870.31622	1802.25256	522.65424	821.63501	1798.44934	360.79822	927.02612	1398.59888	342.2868	922.56976	1615.9679	171.06131	936.45984	1429.50134	158.45784	943.59985	1573.16711	402.78342	608.59076	1326.34436	433.43478	480.41095	1349.60266	447.76193	296.04202	1339.70654	513.63538	82.07118	1390.07068	486.20618	40.8316	1447.54309	661.41168	91.21591	1380.11755	223.44527	600.16254	1653.74109	197.21785	441.82828	1625.46472	100.19341	293.08096	1623.32788	25.89396	99.98923	1566.82898	-28.67931	76.83273	1514.37341	155.13689	34.33125	1564.41284	308.20035	1706.54102	1539.21997	1973.26062	1023.30548	-3101.89868	2012.52185	1022.05103	-3140.64478	NaN	NaN	NaN
194	1.93	313.7529	1666.53564	1446.79407	343.96152	1678.34607	1556.41699	219.7849	1587.7085	1473.70703	249.26088	1598.48767	1589.89026	221.07268	1422.2981	1502.3407	186.63472	1129.96924	1499.50159	366.11246	1356.71472	1498.30896	409.3847	1200.60278	1493.06421	168.85156	1228.44324	1578.36072	303.91742	1387.27075	1338.90479	254.75459	1205.60693	1255.18677	220.74127	1060.67981	1258.73743	235.10237	947.75763	1234.80591	282.97314	815.80707	1258.97498	230.64807	825.16229	1229.35229	255.64673	740.68628	1232.33398	305.38342	1381.87402	1650.47656	278.3847	1180.94238	1757.54419	303.9917	1056.54419	1766.86255	380.08093	958.69196	1790.1106	499.94788	890.03326	1760.23267	463.79803	870.1449	1801.09839	532.42389	821.51208	1797.14612	371.37466	926.31635	1397.71643	352.7352	921.8504	1615.09839	181.53055	935.77692	1428.42395	168.93356	943.10669	1571.96094	414.94424	608.22021	1327.06714	444.24658	479.65045	1350.75415	456.71915	294.54279	1341.56079	520.85291	80.18613	1392.35864	492.89886	39.53568	1450.32849	668.58759	88.37524	1383.19812	232.63309	599.9071	1653.39246	205.39735	441.64984	1625.85693	105.55807	294.55136	1623.57837	27.44033	102.65002	1567.60107	-27.44539	80.37948	1515.41919	155.45578	34.40925	1564.72473	317.87338	1705.89014	1537.7478	1973.12292	1023.2384	-3101.98584	2012.599	1022.14423	-3140.67627	NaN	NaN	NaN
195	1.94	323.45169	1665.8219	1445.31006	353.59543	1677.65479	1554.8302	229.35037	1587.01624	1472.33374	258.9238	1597.81543	1588.4259	230.81389	1421.3634	1500.84753	197.12337	1128.98401	1498.32263	376.01187	1356.16077	1496.89758	419.70526	1200.14587	1491.79932	178.92833	1227.56531	1577.05591	313.68488	1386.41772	1337.43811	265.06436	1204.51721	1253.88	231.07747	1059.51013	1257.43665	245.55345	946.70203	1233.73535	293.58914	814.80396	1257.86475	241.25441	824.05219	1228.28125	266.24506	739.5285	1231.36963	315.17407	1381.2406	1649.02808	287.64627	1180.42285	1756.07971	313.23465	1056.15356	1765.81042	389.3262	958.26843	1789.02405	509.17426	889.72919	1759.02563	473.11328	869.70679	1799.84937	541.90417	821.40356	1796.04004	382.17697	925.71497	1396.57727	363.38315	921.17041	1614.13293	192.25026	935.08606	1427.42322	179.6431	942.47766	1570.78369	427.46515	607.84821	1327.89209	455.44818	478.93997	1352.12219	465.1778	292.9494	1343.31702	525.94043	78.07714	1395.21997	497.48935	37.72318	1453.17041	673.96088	84.39577	1386.44934	242.25424	599.60645	1653.06055	214.09271	441.20013	1626.17334	111.39534	296.28259	1623.98694	29.37083	105.68808	1568.64172	-25.9479	84.58399	1516.43481	155.71213	34.41276	1564.97791	327.48013	1705.21008	1536.18872	1973.00806	1023.78149	-3101.99219	2012.52246	1022.0296	-3140.7041	NaN	NaN	NaN
196	1.95	333.02963	1665.11548	1443.75916	363.29599	1676.99377	1553.27527	239.04372	1586.28687	1470.77576	268.59885	1597.14282	1586.89087	240.51443	1420.41907	1499.23865	207.85378	1127.91943	1497.1449	385.95447	1355.62903	1495.35901	430.18491	1199.78735	1490.42236	188.98209	1226.70374	1575.78247	323.54456	1385.61438	1335.86206	275.4086	1203.41907	1252.4563	241.68796	1058.44348	1256.23621	256.49158	945.61859	1232.47937	304.63303	813.83868	1256.72534	252.24448	822.98993	1227.16394	277.40302	738.49335	1230.29919	324.97134	1380.63342	1647.41675	296.89731	1180.21704	1754.66309	322.26755	1055.74756	1764.61804	398.32416	957.75629	1787.85522	518.17181	889.21088	1757.79968	482.25073	869.41022	1798.89063	550.89368	820.91193	1794.80383	393.24277	925.17303	1395.32104	374.71112	920.76361	1612.88794	203.16078	934.27673	1426.41785	190.54555	942.08997	1569.77637	440.1521	607.41913	1328.84216	466.85492	478.27814	1353.72144	473.00952	291.10742	1345.18799	529.42419	75.47202	1397.99792	499.73035	36.42231	1455.35449	677.55981	79.46144	1390.05078	252.47191	599.18274	1652.77917	223.61609	440.82645	1626.66345	117.78248	297.54568	1624.24487	31.72204	108.73048	1569.75232	-24.12058	89.20251	1517.8418	156.0105	34.4076	1565.18896	337.17673	1704.53503	1534.60876	1973.02747	1023.95978	-3101.93701	2012.60693	1022.02319	-3140.62793	NaN	NaN	NaN
197	1.96	342.7272	1664.51221	1442.12463	373.01611	1676.29102	1551.70361	248.57428	1585.71924	1469.23499	278.27502	1596.47888	1585.2998	250.19106	1419.38782	1497.46191	218.70282	1126.86902	1495.88367	395.95554	1355.14966	1493.67725	440.77844	1199.44409	1488.86499	199.33252	1225.672	1574.35364	333.33908	1384.84619	1334.10693	285.72366	1202.43225	1251.02844	252.56448	1057.38904	1254.77283	267.6011	944.59863	1231.24268	316.11111	812.92993	1255.52441	263.71667	821.97888	1226.01331	289.00595	737.53326	1229.04309	334.74252	1380.04028	1645.64465	306.09097	1179.86243	1753.04639	331.12308	1055.31848	1763.31067	407.13028	957.22473	1786.63245	526.78802	888.48511	1756.54858	490.78406	868.69067	1797.70679	559.58215	820.16925	1793.57874	404.55408	924.63306	1394.06152	385.75394	920.14063	1611.7688	214.44402	933.35217	1425.43188	201.87036	941.27405	1568.38684	452.5856	606.79156	1330.16211	478.3591	477.53198	1355.63574	480.54089	289.09653	1347.03223	531.9173	72.92854	1400.36133	500.60815	34.58331	1457.0498	680.1441	73.5617	1394.20435	263.17026	598.79419	1652.59546	233.74884	440.1759	1627.14819	124.82189	299.02878	1624.56689	34.22274	112.21291	1570.84314	-22.2932	94.18913	1518.8197	156.42346	34.7704	1565.60974	346.85883	1703.85571	1532.98145	1973.18091	1023.29272	-3101.91626	2012.4729	1022.00128	-3140.6687	NaN	NaN	NaN
